<?xml version="1.0" encoding="utf-8"?>
<!-- Generator: Adobe Illustrator 16.0.0, SVG Export Plug-In . SVG Version: 6.00 Build 0)  -->
<!DOCTYPE svg PUBLIC "-//W3C//DTD SVG 1.1//EN" "http://www.w3.org/Graphics/SVG/1.1/DTD/svg11.dtd">
<svg version="1.1" id="Layer_1" xmlns="http://www.w3.org/2000/svg" xmlns:xlink="http://www.w3.org/1999/xlink" x="0px" y="0px"
	 width="841.89px" height="595.28px" viewBox="0 0 841.89 595.28" enable-background="new 0 0 841.89 595.28" xml:space="preserve">
<g>
	<g>
		<g>
			<path fill="#1E1E1E" stroke="#003300" stroke-miterlimit="10" d="M350.497,385.252c-0.08,0.602-0.221,1.285-0.422,2.053
				c-0.201,0.77-0.414,1.498-0.64,2.188c-0.226,0.691-0.435,1.27-0.628,1.738c-0.193,0.467-0.321,0.701-0.386,0.701
				c-0.209,0-0.479-0.096-0.809-0.285s-0.692-0.434-1.087-0.734c-0.394-0.301-0.792-0.641-1.194-1.018
				c-0.402-0.379-0.776-0.764-1.122-1.152c-0.347-0.391-0.64-0.77-0.882-1.137c-0.241-0.367-0.394-0.684-0.458-0.951
				c0-0.133,0.093-0.523,0.277-1.168c0.186-0.646,0.398-1.348,0.64-2.105c0.241-0.756,0.491-1.457,0.748-2.104
				c0.258-0.646,0.459-1.035,0.604-1.168c0.258,0.4,0.596,0.852,1.014,1.352c0.419,0.502,0.878,0.99,1.376,1.469
				c0.499,0.479,1.006,0.93,1.521,1.354C349.564,384.705,350.047,385.029,350.497,385.252z M353.008,378.037
				c0.659,1.137,1.476,2.148,2.45,3.039c0.973,0.891,1.958,1.592,2.956,2.105c-0.338,1.223-0.64,2.248-0.905,3.072
				c-0.265,0.822-0.494,1.486-0.688,1.986c-0.193,0.502-0.35,0.863-0.471,1.086s-0.205,0.334-0.253,0.334
				c-0.13,0-0.33-0.072-0.604-0.217c-0.274-0.145-0.588-0.352-0.941-0.617c-0.354-0.268-0.729-0.574-1.123-0.92
				s-0.769-0.713-1.122-1.102c-0.354-0.391-0.668-0.797-0.941-1.219c-0.273-0.424-0.467-0.848-0.579-1.27
				c0-0.156,0.076-0.506,0.229-1.053c0.152-0.545,0.338-1.152,0.555-1.818c0.218-0.668,0.455-1.32,0.712-1.955
				C352.541,378.855,352.782,378.371,353.008,378.037z"/>
			<path fill="#003300" stroke="#003300" stroke-miterlimit="10" d="M356.121,314.916c0.242,0,0.391,0.084,0.447,0.252
				c0.056,0.166,0.084,0.35,0.084,0.551c0,0.334-0.036,0.701-0.108,1.102s-0.157,0.813-0.253,1.236
				c-0.097,0.445-0.182,0.896-0.254,1.352c-0.072,0.457-0.108,0.896-0.108,1.32c0,0.867,0.156,1.553,0.471,2.053
				c0.313,0.502,0.728,0.902,1.243,1.203c0.515,0.301,1.11,0.539,1.786,0.719c0.659,0.199,1.339,0.406,2.039,0.617
				s1.396,0.484,2.088,0.818c0.692,0.334,1.319,0.801,1.883,1.402c0.966,1.068,1.609,2.305,1.931,3.707
				c0.322,1.402,0.483,2.928,0.483,4.576c0,1.268-0.064,2.754-0.193,4.457c-0.129,1.705-0.29,3.58-0.482,5.629
				c-0.274,2.85-0.769,5.531-1.484,8.049c-0.717,2.516-1.59,4.836-2.619,6.963c-1.03,2.125-2.185,4.035-3.464,5.729
				c-1.279,1.691-2.615,3.127-4.007,4.307c-1.392,1.182-2.809,2.088-4.248,2.723c-1.44,0.635-2.828,0.951-4.164,0.951
				c-2.012,0-3.765-0.539-5.262-1.619c-1.496-1.08-2.748-2.533-3.753-4.357c-1.006-1.826-1.759-3.938-2.257-6.33
				c-0.499-2.393-0.749-4.904-0.749-7.531c0-2.227,0.125-4.369,0.375-6.428c0.249-2.061,0.635-4.08,1.158-6.063
				c0.522-1.982,1.19-3.945,2.003-5.895c0.813-1.947,1.79-3.947,2.933-5.994c0.547-0.957,1.026-1.754,1.437-2.389
				s0.769-1.146,1.074-1.537c0.306-0.389,0.556-0.668,0.748-0.834c0.193-0.168,0.346-0.25,0.459-0.25
				c0.097,0,0.193,0.021,0.289,0.066c0.097,0.045,0.146,0.133,0.146,0.268c0,0.311-0.097,0.6-0.29,0.867
				c-1.528,2.428-2.784,4.715-3.766,6.863s-1.758,4.17-2.329,6.063s-0.97,3.662-1.194,5.311c-0.226,1.646-0.338,3.184-0.338,4.607
				c0,2.449,0.241,4.588,0.724,6.412c0.483,1.826,1.143,3.34,1.979,4.543s1.822,2.104,2.957,2.705
				c1.134,0.602,2.354,0.902,3.656,0.902c1.416,0,2.86-0.357,4.333-1.068c1.473-0.713,2.896-1.654,4.272-2.822
				c1.376-1.17,2.667-2.512,3.874-4.025s2.257-3.066,3.149-4.658c0.894-1.592,1.602-3.174,2.124-4.742
				c0.523-1.57,0.785-2.99,0.785-4.26c0-0.822-0.101-1.596-0.302-2.32c-0.201-0.723-0.531-1.387-0.99-1.986
				c-0.458-0.602-1.074-1.158-1.846-1.67c-0.772-0.514-1.723-0.992-2.849-1.438c-0.998-0.289-1.891-0.65-2.68-1.084
				c-0.788-0.436-1.456-0.992-2.003-1.67c-0.547-0.68-0.966-1.525-1.255-2.539c-0.29-1.014-0.435-2.254-0.435-3.725
				c0-0.912,0.072-1.914,0.217-3.006c0.146-1.09,0.378-2.293,0.7-3.605c0.37-1.447,0.708-2.555,1.014-3.324
				C355.606,315.301,355.88,314.916,356.121,314.916z"/>
			<path fill="#003300" stroke="#003300" stroke-miterlimit="10" d="M364.377,283.759c-0.08,0.602-0.222,1.285-0.423,2.053
				c-0.201,0.77-0.414,1.498-0.64,2.188c-0.225,0.691-0.435,1.27-0.627,1.738c-0.193,0.467-0.322,0.701-0.387,0.701
				c-0.209,0-0.479-0.096-0.809-0.285c-0.329-0.188-0.691-0.434-1.086-0.734s-0.793-0.639-1.195-1.018
				c-0.401-0.379-0.775-0.764-1.122-1.152c-0.346-0.391-0.64-0.77-0.881-1.137s-0.395-0.684-0.459-0.951
				c0-0.133,0.093-0.523,0.278-1.168c0.185-0.646,0.397-1.348,0.64-2.105c0.241-0.756,0.49-1.457,0.748-2.104
				s0.458-1.035,0.604-1.168c0.257,0.4,0.595,0.852,1.014,1.352c0.418,0.502,0.877,0.99,1.376,1.469
				c0.499,0.48,1.006,0.932,1.521,1.354C363.443,283.214,363.927,283.536,364.377,283.759z M366.887,276.544
				c0.66,1.137,1.477,2.15,2.45,3.039c0.974,0.891,1.959,1.594,2.957,2.105c-0.338,1.225-0.64,2.248-0.905,3.072
				s-0.495,1.486-0.688,1.986c-0.193,0.502-0.351,0.863-0.471,1.086c-0.121,0.223-0.206,0.334-0.254,0.334
				c-0.129,0-0.33-0.072-0.604-0.217s-0.588-0.352-0.941-0.619c-0.354-0.266-0.729-0.572-1.122-0.918
				c-0.395-0.344-0.769-0.711-1.122-1.102c-0.354-0.389-0.668-0.801-0.941-1.236c-0.274-0.434-0.468-0.852-0.58-1.252
				c0-0.156,0.077-0.506,0.229-1.053c0.153-0.545,0.338-1.152,0.556-1.82c0.217-0.668,0.454-1.318,0.712-1.953
				C366.42,277.362,366.661,276.878,366.887,276.544z"/>
			<path fill="#003300" stroke="#003300" stroke-miterlimit="10" d="M357.715,316.621c-0.579,0.801-1.082,1.635-1.509,2.504
				c-0.426,0.869-0.775,1.77-1.05,2.705c-0.129,0.4-0.27,0.791-0.422,1.17c-0.153,0.377-0.351,0.566-0.592,0.566
				c-0.08,0-0.145-0.045-0.193-0.133c-0.048-0.09-0.084-0.195-0.108-0.318c-0.024-0.121-0.036-0.244-0.036-0.367
				c0-0.121,0-0.229,0-0.316c0-0.223,0.04-0.602,0.121-1.135c0.08-0.535,0.192-1.148,0.338-1.838
				c0.145-0.689,0.317-1.424,0.519-2.205c0.201-0.777,0.423-1.547,0.664-2.303c0.177-0.691,0.531-1.531,1.062-2.521
				c0.531-0.992,1.167-2.033,1.907-3.123c0.74-1.092,1.561-2.176,2.462-3.255c0.901-1.08,1.818-2.049,2.752-2.906
				c0.933-0.857,1.847-1.553,2.739-2.088c0.894-0.533,1.71-0.801,2.45-0.801c0.435,0,0.756,0.15,0.965,0.451
				s0.435,0.773,0.677,1.418c0.563,1.381,1.295,2.672,2.196,3.875c0.9,1.202,1.923,2.358,3.065,3.472
				c1.11,1.068,1.902,2.121,2.377,3.156s0.712,2.055,0.712,3.057v0.867c-0.386,0.379-0.792,0.641-1.219,0.785
				c-0.426,0.146-0.856,0.217-1.291,0.217c-1.465,0-3.17-1.379-5.117-4.141c-0.37-0.49-0.716-0.969-1.038-1.436
				c-0.322-0.469-0.64-0.875-0.953-1.219c-0.313-0.346-0.632-0.623-0.953-0.836c-0.322-0.211-0.66-0.316-1.015-0.316
				c-0.676,0-1.439,0.217-2.293,0.65c-0.853,0.434-1.713,0.99-2.582,1.67s-1.71,1.436-2.522,2.271
				C359.015,315.033,358.311,315.842,357.715,316.621z"/>
			<path fill="#003300" stroke="#003300" stroke-miterlimit="10" d="M389.648,332.852c-0.08,0.602-0.221,1.285-0.422,2.053
				c-0.201,0.77-0.414,1.498-0.64,2.188c-0.226,0.691-0.435,1.27-0.628,1.738c-0.193,0.467-0.321,0.701-0.386,0.701
				c-0.209,0-0.479-0.096-0.809-0.285s-0.692-0.434-1.087-0.734c-0.394-0.301-0.792-0.641-1.194-1.018
				c-0.402-0.379-0.776-0.764-1.122-1.152c-0.347-0.391-0.64-0.77-0.882-1.137c-0.241-0.367-0.394-0.684-0.458-0.951
				c0-0.133,0.093-0.523,0.277-1.168c0.186-0.646,0.398-1.348,0.64-2.105c0.241-0.756,0.491-1.457,0.748-2.104
				c0.258-0.646,0.459-1.035,0.604-1.168c0.258,0.4,0.596,0.852,1.014,1.352c0.419,0.502,0.878,0.99,1.376,1.469
				c0.499,0.479,1.006,0.93,1.521,1.354C388.716,332.305,389.198,332.629,389.648,332.852z M392.159,325.637
				c0.66,1.137,1.477,2.148,2.45,3.039s1.959,1.592,2.957,2.105c-0.338,1.223-0.64,2.248-0.905,3.072
				c-0.266,0.822-0.495,1.486-0.688,1.986c-0.192,0.502-0.35,0.863-0.471,1.086c-0.12,0.223-0.205,0.334-0.253,0.334
				c-0.129,0-0.33-0.072-0.604-0.217s-0.588-0.352-0.941-0.617c-0.354-0.268-0.729-0.574-1.122-0.92
				c-0.395-0.346-0.769-0.713-1.123-1.102c-0.354-0.391-0.668-0.797-0.941-1.219c-0.273-0.424-0.467-0.848-0.579-1.27
				c0-0.156,0.077-0.506,0.229-1.053c0.152-0.545,0.338-1.152,0.555-1.818c0.218-0.668,0.455-1.32,0.713-1.955
				C391.692,326.455,391.934,325.971,392.159,325.637z"/>
			<path fill="#003300" stroke="#003300" stroke-miterlimit="10" d="M372.246,305.601c0.805,1.179,1.661,2.075,2.57,2.687
				c0.909,0.613,1.87,0.918,2.885,0.918c0.595,0,1.206-0.127,1.834-0.383s1.268-0.613,1.919-1.068
				c0.651-0.457,1.299-0.996,1.943-1.621c0.644-0.622,1.271-1.312,1.883-2.069c1.641-1.938,2.462-4.096,2.462-6.479
				c0-0.557-0.081-1.219-0.242-1.988c-0.16-0.768-0.338-1.563-0.53-2.387c-0.193-0.803-0.371-1.586-0.531-2.355
				c-0.161-0.768-0.241-1.441-0.241-2.02c0-0.469,0.08-1.248,0.241-2.338c0.16-1.092,0.482-2.627,0.966-4.609h0.192
				c0.146,0.713,0.298,1.402,0.459,2.07c0.16,0.668,0.33,1.336,0.507,2.004c0.386,1.516,0.797,2.783,1.231,3.809
				c0.435,1.023,0.894,1.902,1.376,2.637c0.482,0.736,0.981,1.375,1.496,1.922c0.515,0.545,1.046,1.074,1.593,1.586
				c1.11,1.068,1.903,2.121,2.378,3.156s0.712,2.053,0.712,3.055v0.869c-0.386,0.379-0.797,0.641-1.23,0.785
				c-0.435,0.145-0.861,0.217-1.279,0.217c-0.676,0-1.412-0.313-2.209-0.936s-1.67-1.604-2.618-2.939l-0.146,0.068
				c-0.048,2.693-0.427,5.076-1.135,7.146c-0.708,2.07-1.634,3.873-2.775,5.41c-1.448,1.938-2.877,3.289-4.285,4.059
				c-1.408,0.768-2.764,1.152-4.066,1.152c-0.95,0-1.835-0.234-2.655-0.703c-0.821-0.467-1.533-1.063-2.137-1.785
				c-0.604-0.725-1.074-1.52-1.412-2.389s-0.507-1.715-0.507-2.539c0-0.578,0.089-1.268,0.266-2.07
				c0.178-0.801,0.459-1.758,0.845-2.87H372.246z"/>
			<path fill="#003300" stroke="#003300" stroke-miterlimit="10" d="M407.486,317.121c-0.129,0.555-0.318,1.229-0.567,2.02
				c-0.25,0.791-0.511,1.553-0.784,2.287c-0.274,0.736-0.531,1.359-0.772,1.871s-0.419,0.768-0.531,0.768
				c-0.177,0-0.507-0.156-0.989-0.467c-0.483-0.313-1.01-0.719-1.581-1.219c-0.571-0.502-1.123-1.08-1.653-1.736
				c-0.531-0.658-0.926-1.342-1.183-2.055c0-0.066,0.04-0.268,0.12-0.602c0.081-0.334,0.186-0.723,0.313-1.168
				c0.146-0.445,0.299-0.936,0.459-1.471c0.161-0.533,0.33-1.047,0.507-1.535c0.178-0.49,0.351-0.93,0.52-1.32
				c0.169-0.389,0.317-0.674,0.446-0.852c0.499,0.713,1.006,1.357,1.521,1.938c0.515,0.578,1.021,1.102,1.521,1.57
				c0.499,0.467,0.974,0.861,1.424,1.186c0.451,0.322,0.861,0.561,1.231,0.717V317.121z"/>
			<path fill="#003300" stroke="#003300" stroke-miterlimit="10" d="M395.466,304.196c-0.676,0-1.372-0.205-2.088-0.617
				s-1.364-0.957-1.943-1.637s-1.058-1.459-1.437-2.338c-0.378-0.879-0.567-1.775-0.567-2.689c0-0.578,0.089-1.268,0.266-2.07
				c0.178-0.801,0.459-1.758,0.846-2.871h0.241c0.965,1.336,1.839,2.26,2.619,2.771s1.5,0.768,2.16,0.768
				c0.515,0,1.13-0.211,1.847-0.635c0.716-0.422,1.411-1.039,2.088-1.854c0.676-0.813,1.287-1.803,1.834-2.971
				c0.547-1.17,0.909-2.512,1.086-4.025c0.08-1.781,0.229-3.039,0.446-3.773c0.218-0.734,0.438-1.104,0.664-1.104
				c0.064,0,0.125,0.074,0.182,0.219c0.056,0.145,0.104,0.322,0.145,0.533c0.04,0.213,0.068,0.439,0.084,0.686
				c0.017,0.244,0.024,0.457,0.024,0.635c0,0.578-0.017,1.213-0.048,1.902c-0.033,0.691-0.049,1.459-0.049,2.305
				c0,1.27-0.023,2.371-0.072,3.307c-0.048,0.936-0.12,1.76-0.217,2.471c-0.097,0.713-0.21,1.348-0.338,1.904
				c-0.129,0.557-0.274,1.092-0.435,1.604c-0.435,1.336-0.938,2.477-1.509,3.424c-0.571,0.945-1.179,1.719-1.822,2.32
				s-1.308,1.041-1.991,1.318C396.797,304.058,396.125,304.196,395.466,304.196z"/>
			<path fill="#003300" stroke="#003300" stroke-miterlimit="10" d="M429.935,283.74c-0.081,0.602-0.222,1.287-0.423,2.055
				s-0.414,1.498-0.64,2.188s-0.435,1.27-0.628,1.736c-0.192,0.469-0.321,0.701-0.386,0.701c-0.209,0-0.479-0.094-0.809-0.283
				s-0.691-0.434-1.086-0.734s-0.793-0.641-1.195-1.02s-0.776-0.762-1.122-1.152c-0.346-0.389-0.64-0.768-0.881-1.135
				s-0.395-0.686-0.459-0.951c0-0.135,0.093-0.523,0.277-1.17c0.186-0.645,0.398-1.348,0.64-2.104
				c0.241-0.758,0.491-1.459,0.749-2.105c0.257-0.645,0.458-1.035,0.603-1.168c0.258,0.4,0.596,0.852,1.015,1.354
				c0.418,0.5,0.877,0.99,1.375,1.469c0.499,0.479,1.006,0.93,1.521,1.352C429.001,283.195,429.483,283.52,429.935,283.74z
				 M432.444,276.527c0.66,1.135,1.477,2.148,2.45,3.039s1.959,1.592,2.957,2.104c-0.338,1.225-0.64,2.25-0.905,3.072
				c-0.266,0.824-0.495,1.486-0.688,1.988c-0.192,0.5-0.35,0.863-0.471,1.084c-0.12,0.225-0.205,0.334-0.253,0.334
				c-0.129,0-0.33-0.07-0.604-0.217c-0.273-0.145-0.588-0.35-0.941-0.617c-0.354-0.268-0.729-0.572-1.122-0.918
				c-0.395-0.346-0.769-0.713-1.123-1.104c-0.354-0.389-0.668-0.801-0.941-1.234c-0.273-0.436-0.467-0.852-0.579-1.252
				c0-0.156,0.077-0.508,0.229-1.053s0.338-1.152,0.555-1.82c0.218-0.668,0.455-1.318,0.713-1.953
				C431.978,277.346,432.219,276.861,432.444,276.527z"/>
			<path fill="#003300" stroke="#003300" stroke-miterlimit="10" d="M446.71,322.949c-0.387,0.379-0.797,0.641-1.231,0.785
				s-0.861,0.217-1.279,0.217c-0.37,0-0.784-0.1-1.243-0.301c-0.459-0.199-0.929-0.488-1.412-0.867
				c-0.482-0.379-0.957-0.84-1.424-1.387c-0.467-0.545-0.894-1.162-1.279-1.854c-0.82-1.402-1.577-3.006-2.269-4.809
				c-0.692-1.805-1.207-3.719-1.545-5.744l-0.193-0.068c-0.998,0.559-1.803,1.332-2.414,2.322s-1.098,2.104-1.46,3.34
				c-0.362,1.234-0.632,2.527-0.809,3.873c-0.178,1.348-0.322,2.656-0.435,3.926c-0.112,1.291-0.226,2.486-0.338,3.59
				c-0.112,1.102-0.29,2.01-0.531,2.721c-0.37,1.115-0.813,1.992-1.327,2.639c-0.516,0.646-1.15,0.969-1.907,0.969
				c-0.547,0-1.143-0.205-1.786-0.617s-1.295-1.008-1.955-1.787s-1.3-1.736-1.919-2.873c-0.619-1.135-1.171-2.438-1.653-3.906
				c-0.482-1.471-0.873-3.09-1.171-4.859c-0.298-1.771-0.446-3.68-0.446-5.729c0-0.779,0.061-1.703,0.181-2.771
				c0.121-1.068,0.351-2.238,0.688-3.508c0.128-0.4,0.257-0.689,0.386-0.867s0.241-0.268,0.338-0.268s0.169,0.139,0.218,0.418
				c0.048,0.277,0.072,0.518,0.072,0.717c-0.273,0.848-0.446,1.67-0.52,2.473c-0.072,0.801-0.108,1.625-0.108,2.471
				c0,1.426,0.213,2.867,0.64,4.326c0.427,1.457,0.978,2.777,1.653,3.957s1.42,2.143,2.233,2.889
				c0.813,0.746,1.604,1.119,2.377,1.119c0.161,0,0.378-0.078,0.652-0.234c0.273-0.154,0.551-0.488,0.832-1.002
				c0.281-0.512,0.539-1.264,0.772-2.254s0.398-2.32,0.495-3.99c0.08-1.404,0.205-2.744,0.374-4.025
				c0.169-1.279,0.398-2.482,0.688-3.607c0.29-1.123,0.64-2.164,1.051-3.123c0.41-0.957,0.896-1.824,1.46-2.604
				c0.676-0.914,1.412-1.648,2.209-2.205c0.796-0.557,1.717-0.957,2.764-1.201c0.145,0,0.269,0.033,0.374,0.1
				c0.104,0.066,0.156,0.166,0.156,0.301c0.032,0.445,0.064,0.936,0.097,1.469c0.016,0.557,0.064,1.092,0.146,1.604
				c0.209,1.691,0.543,3.205,1.001,4.541c0.459,1.336,0.994,2.533,1.605,3.592c0.611,1.057,1.271,1.998,1.979,2.822
				c0.708,0.822,1.416,1.559,2.124,2.203c1.11,1.068,1.902,2.121,2.377,3.156s0.713,2.055,0.713,3.057V322.949z"/>
			<path fill="#1E1E1E" stroke="#003300" stroke-miterlimit="10" d="M438.792,316.805c0-0.578,0.088-1.27,0.266-2.07
				c0.177-0.803,0.458-1.76,0.845-2.873h0.241c0.965,1.336,1.839,2.26,2.619,2.773c0.78,0.512,1.5,0.768,2.16,0.768
				c1.046,0,2.111-0.352,3.198-1.053c1.086-0.701,2.208-1.908,3.367-3.623c0.676-1.047,1.198-2.16,1.568-3.34
				s0.556-2.404,0.556-3.674c0-0.756-0.109-1.838-0.326-3.24s-0.487-2.988-0.809-4.758c-0.322-1.771-0.668-3.658-1.038-5.662
				c-0.37-1.98-0.716-3.945-1.038-5.895c-0.321-1.947-0.591-3.807-0.809-5.576c-0.217-1.771-0.325-3.301-0.325-4.594
				c0-1.135,0.181-2.492,0.543-4.074c0.362-1.58,0.953-3.428,1.774-5.543l0.241,0.199c-0.033,0.201-0.049,0.436-0.049,0.701
				c0,0.268,0,0.523,0,0.77c0,1.357,0.097,2.949,0.29,4.775s0.458,3.824,0.796,5.994c0.339,2.172,0.725,4.482,1.159,6.93
				c0.435,2.451,0.893,4.967,1.376,7.549c0.482,2.582,1.018,4.809,1.604,6.68c0.588,1.869,1.195,3.34,1.823,4.408
				c0.434,0.779,0.743,1.682,0.929,2.705c0.185,1.025,0.277,1.992,0.277,2.906v0.668c-0.949,0-1.81-0.295-2.582-0.885
				s-1.44-1.609-2.004-3.057h-0.193c-0.145,3.184-0.438,5.883-0.881,8.1c-0.442,2.215-1.05,4.012-1.822,5.393
				c-1.19,2.094-2.441,3.596-3.753,4.51c-1.312,0.912-2.636,1.369-3.971,1.369c-0.676,0-1.372-0.207-2.088-0.619
				s-1.364-0.957-1.943-1.637c-0.579-0.678-1.058-1.457-1.436-2.338C438.981,318.613,438.792,317.719,438.792,316.805z"/>
			<path fill="#003300" stroke="#003300" stroke-miterlimit="10" d="M452.454,280.5c0.482,0.781,0.861,1.51,1.135,2.189
				c0.273,0.678,0.458,1.307,0.555,1.887c0.338,1.893,0.668,3.68,0.989,5.359c0.322,1.682,0.652,3.211,0.99,4.592h0.193
				c0.257-0.867,0.51-1.947,0.76-3.238c0.249-1.291,0.511-2.906,0.784-4.844c0.563-0.689,1.184-1.357,1.859-2.004
				c0.676-0.645,1.379-1.207,2.111-1.686s1.48-0.863,2.245-1.152c0.764-0.289,1.524-0.436,2.281-0.436
				c1.077,0,2.043,0.252,2.896,0.752c0.853,0.502,1.581,1.203,2.185,2.104c0.603,0.902,1.065,1.971,1.388,3.207
				c0.321,1.236,0.482,2.6,0.482,4.092c0,1.113-0.057,2.203-0.169,3.273c-0.129,1.068-0.233,2.158-0.313,3.271
				c-0.129,2.094-0.362,3.941-0.7,5.545s-0.748,3.006-1.231,4.207c-0.482,1.203-1.018,2.217-1.604,3.039
				c-0.588,0.824-1.195,1.492-1.822,2.004c-0.628,0.512-1.256,0.881-1.883,1.104c-0.628,0.221-1.224,0.334-1.786,0.334
				c-2.044,0-3.923-1.264-5.637-3.791s-3.166-6.295-4.356-11.305c-0.306-1.225-0.592-2.467-0.856-3.725
				c-0.266-1.258-0.499-2.455-0.7-3.59c-0.201-1.137-0.362-2.16-0.483-3.072c-0.12-0.914-0.181-1.658-0.181-2.238
				c0-1.047,0.048-2.07,0.145-3.072s0.242-1.938,0.435-2.807H452.454z M455.989,279.754c0.981-1.443,1.939-2.861,2.875-4.26
				c0.935-1.397,1.729-2.696,2.383-3.893c0.23-0.425,0.489-0.771,0.775-1.038c0.287-0.267,0.652-0.508,1.102-0.731
				c0.448-0.221,0.991-0.446,1.629-0.675c0.617-0.244,1.382-0.547,2.296-0.913c5.286-2.23,10.285-4.563,15-7
				c4.715-2.438,9.191-4.974,13.432-7.603c4.241-2.632,8.249-5.34,12.024-8.128c3.774-2.786,7.367-5.644,10.775-8.574l0.18,0.286
				c-1.16,2.029-2.218,3.78-3.174,5.25c-0.957,1.473-1.878,2.761-2.762,3.863c-0.886,1.102-1.741,2.06-2.565,2.872
				c-0.826,0.813-1.669,1.566-2.528,2.262c-3.279,2.654-6.562,5.16-9.85,7.507c-3.29,2.35-6.525,4.521-9.711,6.519
				c-3.184,1.996-6.286,3.806-9.305,5.428c-3.021,1.625-5.886,3.053-8.597,4.284c-2.713,1.232-5.239,2.252-7.575,3.059
				c-2.339,0.81-4.436,1.391-6.29,1.741L455.989,279.754z M456.605,295.863c0.482,1.67,1.01,3.084,1.581,4.242
				s1.183,2.092,1.835,2.805c0.651,0.713,1.339,1.23,2.063,1.553c0.724,0.324,1.488,0.484,2.293,0.484
				c0.772,0,1.572-0.262,2.401-0.783c0.829-0.523,1.581-1.203,2.257-2.039c0.676-0.834,1.235-1.781,1.678-2.838
				c0.442-1.059,0.664-2.109,0.664-3.156c0-1.023-0.153-1.949-0.459-2.771c-0.306-0.824-0.716-1.52-1.23-2.088
				c-0.516-0.568-1.115-1.002-1.799-1.303s-1.404-0.451-2.16-0.451c-0.82,0-1.682,0.189-2.583,0.568s-1.766,0.869-2.595,1.469
				c-0.829,0.602-1.593,1.281-2.293,2.039C457.559,294.35,457.008,295.107,456.605,295.863z"/>
			<path fill="#1E1E1E" stroke="#003300" stroke-miterlimit="10" d="M497.818,275.963c0-0.066,0.036-0.273,0.108-0.617
				c0.073-0.346,0.169-0.736,0.29-1.17s0.254-0.857,0.398-1.27c0.145-0.41,0.281-0.729,0.41-0.951v-0.066
				c-0.772-0.268-1.399-0.707-1.883-1.32c-0.482-0.611-0.724-1.352-0.724-2.221c0-0.268,0.028-0.635,0.084-1.102
				c0.057-0.467,0.173-1.057,0.351-1.77c0.112-0.535,0.27-1.035,0.471-1.504c0.201-0.467,0.45-0.867,0.748-1.201
				s0.651-0.602,1.062-0.803c0.41-0.199,0.89-0.301,1.437-0.301c0.901,0,1.593,0.195,2.076,0.586
				c0.482,0.389,0.724,0.885,0.724,1.484c0,0.469-0.064,0.926-0.193,1.371c-0.145,0.467-0.289,0.967-0.435,1.502
				c-0.048,0.133-0.112,0.201-0.192,0.201c-0.129,0-0.21-0.111-0.241-0.334c-0.033-0.535-0.234-0.947-0.604-1.236
				c-0.371-0.289-0.958-0.434-1.763-0.434c-0.708,0-1.246,0.162-1.617,0.484c-0.37,0.322-0.555,0.65-0.555,0.984
				c0,0.445,0.125,0.84,0.374,1.186c0.25,0.346,0.547,0.646,0.893,0.902c0.347,0.256,0.696,0.451,1.051,0.584
				c0.354,0.133,0.644,0.201,0.868,0.201c0.402,0,0.841-0.09,1.315-0.268s0.958-0.406,1.448-0.686
				c0.491-0.277,0.981-0.578,1.473-0.9c0.491-0.324,0.945-0.641,1.364-0.953c0.097-0.066,0.169-0.1,0.217-0.1
				c0.097,0,0.145,0.066,0.145,0.201c0,0.088-0.04,0.189-0.12,0.299c-0.338,0.469-0.579,0.936-0.725,1.404
				c-0.161,0.467-0.289,0.824-0.386,1.068c-0.161,0.445-0.406,0.83-0.736,1.152s-0.716,0.629-1.158,0.918
				c-0.443,0.289-0.914,0.568-1.412,0.834c-0.499,0.291-0.986,0.607-1.461,0.953c-0.474,0.346-0.921,0.746-1.339,1.201
				c-0.419,0.457-0.765,0.996-1.038,1.621c-0.081,0.133-0.157,0.256-0.229,0.367s-0.157,0.166-0.254,0.166
				C497.899,276.43,497.818,276.273,497.818,275.963z"/>
			<path fill="#1E1E1E" stroke="#003300" stroke-miterlimit="10" d="M500.715,331.971c0-0.178,0.057-0.334,0.169-0.467
				c0.112-0.135,0.233-0.268,0.362-0.4c0.756-0.893,1.545-1.844,2.365-2.855c0.82-1.014,1.569-2.145,2.245-3.391
				s1.234-2.639,1.677-4.176c0.442-1.535,0.664-3.271,0.664-5.209c0-1.424-0.104-3.066-0.313-4.926
				c-0.21-1.859-0.543-3.941-1.002-6.246s-1.042-4.859-1.75-7.664c-0.708-2.807-1.553-5.879-2.534-9.219h-0.193
				c-0.435,1.113-0.736,2.188-0.905,3.223s-0.253,2.076-0.253,3.123c0,0.734,0.048,1.393,0.145,1.971
				c0.097,0.602,0.145,0.969,0.145,1.102c0,0.135-0.008,0.268-0.023,0.402c-0.017,0.133-0.073,0.199-0.169,0.199
				c-0.129,0-0.238-0.1-0.326-0.301c-0.089-0.199-0.173-0.455-0.254-0.768c-0.273-1.068-0.486-2.131-0.64-3.189
				c-0.152-1.057-0.229-2.221-0.229-3.49c0-1.158,0.128-2.293,0.386-3.406c0.257-1.113,0.592-2.248,1.002-3.406
				s0.872-2.35,1.388-3.574c0.499-1.225,0.989-2.527,1.473-3.908h0.192c0.692,2.785,1.448,5.656,2.27,8.617
				c0.82,2.984,1.585,5.973,2.293,8.967c0.708,2.996,1.299,5.951,1.774,8.867c0.474,2.918,0.712,5.723,0.712,8.416
				c0,1.025-0.024,1.977-0.072,2.855c-0.049,0.881-0.121,1.732-0.218,2.557c-0.097,0.822-0.222,1.625-0.374,2.404
				c-0.153,0.779-0.334,1.58-0.543,2.404c-0.531,2.248-1.384,4.303-2.559,6.162c-1.175,1.857-2.672,3.322-4.489,4.391
				c-0.531,0.268-0.975,0.535-1.328,0.803s-0.604,0.4-0.748,0.4c-0.097,0-0.178-0.012-0.241-0.033
				C500.747,332.182,500.715,332.105,500.715,331.971z"/>
			<g>
				<g>
					<path fill="#003300" d="M502.514,330.262c-29.324,14.56-59.788,26.778-88.898,41.782c-6.643,3.424-13.261,6.799-20.019,9.988
						c-11.106,5.242-21.729,11.313-33.752,14.287c-9.697,2.399-20.565,2.311-27.631-5.608c-6.398-7.172-6.845-18.118-6.417-27.165
						c-0.024,0.501-2.294,2.006-2.345,3.064c-0.417,8.825,0.153,17.836,5.018,25.486c5.977,9.397,17.45,9.648,27.29,7.835
						c11.539-2.128,22.023-8.063,32.428-13.173c7.297-3.584,14.636-6.988,21.824-10.8c29.393-15.587,60.523-27.73,90.312-42.521
						C501.315,332.945,501.994,330.52,502.514,330.262L502.514,330.262z"/>
				</g>
			</g>
		</g>
	</g>
	<line fill="none" stroke="#000000" stroke-width="0.3" x1="323.342" y1="182.181" x2="323.342" y2="218.181"/>
	<line fill="none" stroke="#000000" stroke-width="0.3" x1="269.342" y1="236.181" x2="305.342" y2="236.181"/>
	<line fill="none" stroke="#000000" stroke-width="0.3" x1="269.342" y1="400.815" x2="305.342" y2="400.815"/>
	<line fill="none" stroke="#000000" stroke-width="0.3" x1="323.342" y1="454.815" x2="323.342" y2="418.815"/>
	<line fill="none" stroke="#000000" stroke-width="0.3" x1="519.042" y1="182.181" x2="519.042" y2="218.181"/>
	<line fill="none" stroke="#000000" stroke-width="0.3" x1="573.042" y1="236.181" x2="537.042" y2="236.181"/>
	<line fill="none" stroke="#000000" stroke-width="0.3" x1="573.042" y1="400.815" x2="537.042" y2="400.815"/>
	<line fill="none" stroke="#000000" stroke-width="0.3" x1="519.042" y1="454.815" x2="519.042" y2="418.815"/>
</g>
<g>
	<g>
		<g>
			<path fill="#FF3300" d="M483.993,200.849c11.019-4.392,21.136,6.575,18.359,17.308c-1.194,4.621-3.974,9.438-3.012,14.375
				c0.978,5.012,4.04,8.797,7.368,12.521c1.076,1.205,2.839-0.57,1.768-1.768c-2.717-3.04-5.208-6.053-6.447-9.995
				c-1.181-3.758,0.589-8.017,1.794-11.55c1.569-4.603,2.624-9.456,0.461-14.081c-3.6-7.693-12.749-12.492-20.955-9.221
				C481.851,199.028,482.494,201.446,483.993,200.849L483.993,200.849z"/>
		</g>
	</g>
	<g>
		<g>
			<path fill="#FF3300" d="M443.547,218.92c-9.762,4.97-14.546,15.936-8.732,25.831c2.782,4.734,7.525,7.364,12.81,8.07
				c4.864,0.65,8.78,0.748,13.118,3.425c3.385,2.089,6.339,5.585,7.317,9.47c0.394,1.563,2.804,0.899,2.41-0.665
				c-1.027-4.081-3.899-7.724-7.305-10.14c-4.976-3.531-9.638-4.063-15.541-4.59c-7.433-0.663-12.7-7.459-12.96-14.62
				c-0.24-6.614,4.631-11.815,10.145-14.623C446.246,220.347,444.98,218.19,443.547,218.92L443.547,218.92z"/>
		</g>
	</g>
	<g>
		<g>
			<path fill="#FF3300" d="M464.056,208.586c3.271-3.414,6.798-6.528,11.439-7.84c5.698-1.61,10.342,2.829,13.54,6.901
				c0.995,1.267,2.751-0.515,1.768-1.768c-3.701-4.714-8.24-8.374-14.511-7.802c-5.585,0.509-10.333,4.908-14.004,8.741
				C461.173,207.982,462.938,209.752,464.056,208.586L464.056,208.586z"/>
		</g>
	</g>
	<g>
		<g>
			<path fill="#FF3300" d="M465.68,207.396c-5.763-1.334-12.18-1.11-16.88,2.851c-4.146,3.493-4.698,9.151-4.98,14.173
				c-0.049,0.863,0.937,2.222,0.906,2.748c0.333-5.915,1.327-10.999,6.044-14.973c4.079-3.438,10.972-3.044,15.787-1.93
				C466.237,210.191,466.305,207.541,465.68,207.396L465.68,207.396z"/>
		</g>
	</g>
	<g>
		<g>
			<path fill="#FF3300" d="M500.877,235.049c-8.312,2.367-16.372,5.59-23.624,10.338c-4.599,3.01-10.14,6-13.999,9.957
				c-0.218,0.223,0.546,1.325,0.439,1.435c3.672-3.765,8.909-6.569,13.26-9.469c7.47-4.979,15.75-8.374,24.363-10.826
				C501.394,236.461,500.974,235.022,500.877,235.049L500.877,235.049z"/>
		</g>
	</g>
	<g>
		<g>
			<path fill="#FF3300" d="M499.987,233.193c-8.655,2.481-17.132,5.886-24.671,10.858c-4.464,2.944-9.814,5.869-13.564,9.723
				c-0.218,0.224,0.546,1.324,0.439,1.435c3.756-3.862,9.104-6.753,13.563-9.723c7.507-5,16.033-8.382,24.672-10.858
				C500.505,234.605,500.083,233.166,499.987,233.193L499.987,233.193z"/>
		</g>
	</g>
	<g>
		<g>
			<path fill="#FF3300" d="M504.773,241.344c-8.336,2.385-16.518,5.625-23.824,10.345c-4.295,2.775-9.427,5.565-13.021,9.244
				c-0.218,0.223,0.546,1.325,0.439,1.435c3.603-3.688,8.731-6.438,13.021-9.244c7.267-4.754,15.508-7.966,23.824-10.345
				C505.291,242.756,504.869,241.317,504.773,241.344L504.773,241.344z"/>
		</g>
	</g>
	<g>
		<g>
			<path fill="#FF3300" d="M493.669,219.156c-0.626,4.955-1.07,9.984-2.168,14.865c-0.177,0.785,1.028,1.119,1.205,0.332
				c1.122-4.987,1.573-10.135,2.213-15.197C495.02,218.358,493.769,218.368,493.669,219.156L493.669,219.156z"/>
		</g>
	</g>
	<g>
		<g>
			<path fill="#FF3300" d="M471.537,215.757c1.899,3.593,2.221,7.747,3.317,11.61c1.187,4.18,2.691,8.489,4.518,12.434
				c0.339,0.731,1.416,0.096,1.08-0.631c-1.963-4.237-3.486-8.942-4.762-13.438c-1.018-3.583-1.31-7.268-3.073-10.606
				C472.24,214.413,471.161,215.045,471.537,215.757L471.537,215.757z"/>
		</g>
	</g>
	<g>
		<g>
			<path fill="#FF3300" d="M466.353,222.29c4.269,5.393,7.106,11.729,11.052,17.343c0.46,0.654,1.545,0.03,1.08-0.631
				c-4.01-5.704-6.91-12.116-11.247-17.596C466.736,220.774,465.858,221.665,466.353,222.29L466.353,222.29z"/>
		</g>
	</g>
	<g>
		<g>
			<path fill="#FF3300" d="M486.655,238.277c-1.699-6.384-1.203-13.526,0.769-19.791c0.243-0.771-0.964-1.098-1.205-0.332
				c-2.043,6.489-2.527,13.85-0.769,20.455C485.657,239.388,486.863,239.057,486.655,238.277L486.655,238.277z"/>
		</g>
	</g>
	<g>
		<g>
			<path fill="#FF3300" d="M488.457,237.263c-1.819-3.295,0.06-8.148,1.048-11.476c0.23-0.774-0.977-1.103-1.205-0.332
				c-1.094,3.682-2.941,8.78-0.923,12.438C487.767,238.599,488.847,237.969,488.457,237.263L488.457,237.263z"/>
		</g>
	</g>
	<g>
		<g>
			<path fill="#FF3300" d="M499.151,233.171c-0.683-1.55-0.609-3.541-0.651-5.2c-0.036-1.459-0.123-3.104,0.255-4.529
				c0.207-0.78-0.999-1.11-1.205-0.332c-0.45,1.694-0.331,3.609-0.287,5.34c0.044,1.752,0.092,3.721,0.809,5.351
				C498.396,234.538,499.473,233.901,499.151,233.171L499.151,233.171z"/>
		</g>
	</g>
	<g>
		<g>
			<path fill="#FF3300" d="M444.562,228.631c3.305,7.093,8.869,12.609,15.943,15.938c0.725,0.341,1.359-0.736,0.631-1.079
				c-6.901-3.248-12.271-8.57-15.494-15.49C445.301,227.27,444.224,227.905,444.562,228.631L444.562,228.631z"/>
		</g>
	</g>
	<g>
		<g>
			<path fill="#FF3300" d="M451.018,234.234c5.96,4.353,10.744,10.197,17.144,13.95c0.697,0.409,1.325-0.672,0.631-1.079
				c-6.388-3.747-11.188-9.601-17.144-13.95C450.996,232.678,450.374,233.764,451.018,234.234L451.018,234.234z"/>
		</g>
	</g>
	<g>
		<g>
			<path fill="#FF3300" d="M466.058,230.849c4.396,3.129,6.658,8.207,10.567,11.834c0.591,0.547,1.477-0.334,0.885-0.884
				c-4.002-3.712-6.311-8.819-10.821-12.029C466.03,229.301,465.407,230.386,466.058,230.849L466.058,230.849z"/>
		</g>
	</g>
</g>
</svg>
